<svg xmlns="http://www.w3.org/2000/svg" width="448pt" height="448pt" viewBox="0 0 448 448"><path fill="#fafafa" d="M0 0h448v448H0V0m216 91a68 68 0 0 0-50 103c15 27 50 40 79 30 31-10 53-45 46-77-5-34-40-60-75-56m-76 155c-11 2-20 11-22 22-1 17 2 34 12 47 16 22 44 31 69 34s50 2 74-5c17-5 33-13 44-27s15-32 12-50c-2-12-14-22-27-22H153l-13 1Z" id="#fafafaff"/><path fill="#8f8f8f" d="M216 91c35-4 70 22 75 56 7 32-15 67-46 77-29 10-64-3-79-30a68 68 0 0 1 50-103Zm-76 155 13-1h149c13 0 25 10 27 22 3 18-1 36-12 50a87 87 0 0 1-44 27c-24 7-49 8-74 5s-53-12-69-34a65 65 0 0 1-12-47c2-11 11-20 22-22Z" id="#8f8f8fff"/></svg>